:SAMPLES-PER-SECOND 30
:FULLY-SPECIFIED
:DEGREES
469
root  -33.3103 37.7495 -28.4251 -38.8441 -85.5429 54.1647
RightUpLeg  -54.3647 -27.0459 15.131
RightLeg  22.5 7.98683 3.40494
RightFoot  12.7202 2.33589 -10.5098
RightToes  0.00048216 0.542163 -0.142577
Spine  58.4308 -5.0167 7.84977
Spine1  8.91673 -1.42703 1.3345
HEad  -26.0936 -5.15438 -6.00697
LeftShoulder1  9.54299 -23.3045 -29.4024
LeftArm  -32.8181 -54.4343 -22.5855
LeftForeArm  -5.50685 -18.4461 -4.32764
LeftHand  -0.25398 0.0180481 5.50724
RightShoulder  3.2479 10.7226 16.1337
RightArm  -21.0739 45.204 11.1232
RightForeArm  -53.9095 28.4417 8.21505
RightHand  -0.0838201 -2.48455 -2.65807
LeftUpLeg  -54.4053 26.4324 -24.1787
LeftLeg  27.0344 -3.02651 -1.35569
LeftFoot  0.903198 0.794311 -7.50976
LeftToes  1.06243e-005 4.65856e-005 -8.18505e-006
470
root  -33.9719 37.6651 -28.5819 -38.2249 -86.7231 56.6112
RightUpLeg  -57.5247 -25.2876 17.1864
RightLeg  24.2349 7.66994 3.53633
RightFoot  11.4472 2.28096 -10.883
RightToes  0.00048216 0.542163 -0.142577
Spine  60.4367 -4.92982 8.1099
Spine1  8.54224 -0.65761 0.504913
HEad  -28.1582 -4.78535 -6.34144
LeftShoulder1  9.1753 -23.999 -27.1033
LeftArm  -40.079 -58.0956 -17.5395
LeftForeArm  -5.64782 -16.4954 -3.50217
LeftHand  -0.25398 0.0180481 5.50724
RightShoulder  2.96864 10.7311 13.9651
RightArm  -26.1782 48.364 7.47764
RightForeArm  -54.7483 25.8356 7.5785
RightHand  -0.0681277 -2.29786 -1.94627
LeftUpLeg  -57.5133 28.0927 -28.1034
LeftLeg  20.7381 -8.30952 -3.20498
LeftFoot  5.63763 0.827745 -5.91057
LeftToes  1.06243e-005 4.65856e-005 -8.18505e-006
471
root  -34.6319 37.5877 -28.7071 -34.1447 -87.21 55.5366
RightUpLeg  -60.4985 -23.5186 18.1317
RightLeg  26.263 6.30793 3.14963
RightFoot  9.45374 2.09102 -10.9984
RightToes  0.00048216 0.542163 -0.142577
Spine  61.5591 -5.00079 7.93269
Spine1  10.0709 -0.177753 -0.0877175
HEad  -30.6249 -4.37955 -6.66258
LeftShoulder1  8.39001 -24.5268 -23.5092
LeftArm  -48.5831 -60.2656 -12.0073
LeftForeArm  -5.57147 -16.6665 -2.79648
LeftHand  -0.25398 0.0180481 5.50724
RightShoulder  2.7327 10.6077 12.3304
RightArm  -33.7682 50.7296 2.15368
RightForeArm  -52.5247 24.6368 7.25704
RightHand  -0.0272065 -1.81361 -0.44482
LeftUpLeg  -60.194 26.904 -29.9048
LeftLeg  19.8815 -9.26263 -3.3714
LeftFoot  7.29699 -0.487136 2.79225
LeftToes  1.06243e-005 4.65856e-005 -8.18505e-006
472
root  -35.2922 37.5012 -28.8345 -28.2302 -86.9913 52.4639
RightUpLeg  -63.4321 -22.2873 18.4991
RightLeg  28.5049 4.96585 2.68622
RightFoot  7.32372 1.88301 -11.1057
RightToes  0.00048216 0.542163 -0.142577
Spine  63.1194 -5.20242 7.58728
Spine1  9.89411 -0.395946 -0.153975
HEad  -31.9753 -3.80733 -6.82455
LeftShoulder1  7.57114 -24.3837 -20.5793
LeftArm  -56.7557 -61.0251 -6.7214
LeftForeArm  -5.08401 -17.8477 -2.70798
LeftHand  -0.25398 0.0180481 5.50724
RightShoulder  2.5864 10.6705 11.0861
RightArm  -41.6174 51.6849 -2.66593
RightForeArm  -48.3253 24.8859 7.2263
RightHand  0.0349861 -1.13615 1.22338
LeftUpLeg  -62.1588 24.0335 -29.6092
LeftLeg  21.2647 -7.07305 -2.69508
LeftFoot  6.86922 -1.66343 10.0898
LeftToes  1.06243e-005 4.65856e-005 -8.18505e-006
473
root  -35.9378 37.441 -28.9634 -25.3514 -86.6282 52.0072
RightUpLeg  -65.9525 -21.5183 18.7837
RightLeg  30.4789 4.14012 2.39009
RightFoot  5.71514 1.71566 -11.1339
RightToes  0.00048216 0.542163 -0.142577
Spine  64.8427 -5.29413 7.4134
Spine1  9.19827 -0.670245 -0.108414
HEad  -32.6965 -3.79223 -6.75899
LeftShoulder1  7.03654 -24.2899 -18.6238
LeftArm  -64.8684 -61.4701 -1.38184
LeftForeArm  -3.7552 -19.3038 -3.11544
LeftHand  -0.25398 0.0180481 5.50724
RightShoulder  2.37502 10.4702 9.69467
RightArm  -49.7201 51.7183 -6.45234
RightForeArm  -43.0407 25.7667 7.30637
RightHand  0.115656 -0.173208 2.62947
LeftUpLeg  -63.9252 21.6196 -28.6246
LeftLeg  22.8884 -5.31987 -2.13185
LeftFoot  6.47261 -1.75959 10.9307
LeftToes  1.06243e-005 4.65856e-005 -8.18505e-006
